<svg xmlns="http://www.w3.org/2000/svg" viewBox="0 0 169 40" width="169" height="40">
	<style>
		tspan { white-space:pre }
		.shp0 { fill: #336cfb } 
		.shp1 { fill: #1047d1 } 
		.shp2 { fill: #ffffff } 
		.shp3 { fill: #d0d1d3 } 
		.shp4 { fill: #ff314f } 
		.shp5 { fill: #a30f44 } 
	</style>
	<g id="Page-1">
		<g id="logo">
			<g id="pill-(1)">
				<path id="Oval" class="shp0" d="M20 40C8.94 40 0 31.06 0 20C0 8.94 8.94 0 20 0C31.06 0 40 8.94 40 20C40 31.06 31.06 40 20 40Z" />
				<path id="Path" fill-rule="evenodd" class="shp1" d="M38.86 26.66L29.97 17.76L27.22 20.17L16.8 9.87L14.11 21.96L11.98 23.35L27.26 38.64C32.67 36.53 36.93 32.14 38.86 26.66Z" />
				<g id="Group">
					<path id="Path" fill-rule="evenodd" class="shp2" d="M14.44 24.44C12.6 24.44 11.11 22.95 11.11 21.11L11.11 12.22C11.11 10.38 12.6 8.89 14.44 8.89C16.29 8.89 17.78 10.38 17.78 12.22L17.78 21.11C17.78 22.95 16.29 24.44 14.44 24.44Z" />
					<path id="Path" fill-rule="evenodd" class="shp2" d="M17.78 12.22C17.78 10.38 16.29 8.89 14.44 8.89C12.6 8.89 11.11 10.38 11.11 12.22L11.11 16.59L17.78 16.59L17.78 12.22L17.78 12.22Z" />
				</g>
				<path id="Path" fill-rule="evenodd" class="shp3" d="M17.78 12.22C17.78 10.38 16.29 8.89 14.44 8.89C14.44 8.89 14.44 8.89 14.43 8.89L14.43 16.59L17.78 16.59L17.78 12.22Z" />
				<path id="Path" fill-rule="evenodd" class="shp4" d="M11.11 16.59L11.11 21.11C11.11 22.95 12.6 24.44 14.44 24.44C16.29 24.44 17.78 22.95 17.78 21.11L17.78 16.59L11.11 16.59Z" />
				<path id="Path" fill-rule="evenodd" class="shp5" d="M14.43 16.59L14.43 24.44C14.44 24.44 14.44 24.44 14.44 24.44C16.29 24.44 17.78 22.95 17.78 21.11L17.78 16.59L14.43 16.59L14.43 16.59Z" />
				<g id="Group">
					<path id="Path" fill-rule="evenodd" class="shp2" d="M29.63 17.41C30.99 18.64 31.1 20.75 29.86 22.11L23.9 28.71C22.67 30.07 20.56 30.18 19.19 28.95C17.83 27.71 17.72 25.6 18.96 24.24L24.92 17.64C26.15 16.28 28.26 16.17 29.63 17.41Z" />
					<path id="Path" fill-rule="evenodd" class="shp2" d="M18.96 24.24C17.72 25.6 17.83 27.71 19.19 28.95C20.56 30.18 22.67 30.07 23.9 28.71L26.83 25.47L21.89 21L18.96 24.24Z" />
				</g>
				<path id="Path" fill-rule="evenodd" class="shp3" d="M19.14 28.89C19.16 28.91 19.18 28.93 19.19 28.95C20.56 30.18 22.67 30.07 23.9 28.71L26.83 25.47L24.33 23.21L19.14 28.89Z" />
				<path id="Path" fill-rule="evenodd" class="shp4" d="M26.83 25.47L29.86 22.11C31.1 20.75 30.99 18.64 29.63 17.41C28.26 16.17 26.15 16.28 24.92 17.64L21.89 21L26.83 25.47Z" />
				<path id="Path" fill-rule="evenodd" class="shp5" d="M29.63 17.41L24.33 23.21L26.83 25.47L29.86 22.11C31.1 20.75 30.99 18.65 29.63 17.41Z" />
			</g>
			<g id="text">
				<path id="BD " fill="#336cfb" d="M135.34 17.57Q134.33 17.57 133.83 17.22Q133.34 16.88 133.34 16.13Q133.34 16.07 133.43 16.07Q133.5 16.07 133.86 16.16Q134.22 16.25 135.12 16.25Q137.12 16.25 138.76 15.66Q140.42 15.05 141.35 14.06Q142.29 13.07 142.29 11.99Q142.29 10.67 140.99 10.2Q139.7 9.72 137.75 9.72L136.4 9.74Q136.13 10.65 135.63 12.49Q135.25 13.89 134.78 15.53Q134.33 15.53 134.03 15.28Q133.72 15.03 133.72 14.67Q133.72 14.43 133.83 14.09Q133.94 13.75 133.97 13.64Q134.53 11.77 135.65 8.66Q136.78 5.52 137.79 3.54Q136.73 3.72 135.7 4.34Q135.38 4.52 135.3 4.52Q135.16 4.52 134.94 4.34Q134.73 4.16 134.73 4.03Q135.92 3.54 136.82 3.29Q137.73 3.04 138.99 3.04Q140.65 3.04 141.89 3.65Q143.15 4.25 143.15 5.9Q143.15 7.5 141.95 8.31Q140.76 9.12 139.03 9.41Q143.13 9.66 143.13 12.31Q143.13 13.93 141.82 15.14Q140.51 16.32 138.65 16.95Q136.82 17.57 135.34 17.57ZM136.51 9.32Q138.83 9.25 140.45 8.4Q142.07 7.56 142.07 5.76Q142.07 3.42 139.03 3.42Q138.8 3.42 138.69 3.44Q137.63 5.51 136.51 9.32ZM146.55 17.57Q145.91 17.57 145.42 17.4Q144.95 17.22 144.63 16.76Q145.1 14.51 146.12 11.18Q147.17 7.83 147.74 6.32Q147.96 5.74 148.32 5.18Q148.68 4.62 149.15 4.62Q149.4 4.62 149.65 4.8Q148.57 7.31 147.45 10.82Q146.36 14.33 145.76 17.03Q146.19 17.1 146.54 17.1Q148.39 17.1 150.08 15.71Q151.77 14.33 152.82 12.17Q153.86 9.99 153.86 7.77Q153.86 5.67 152.87 4.61Q151.88 3.53 150.17 3.53Q149.02 3.53 148.07 3.99Q147.13 4.44 146.59 5.25Q146.05 6.06 146.05 7.04Q146.05 7.43 146.14 7.7Q145.58 7.7 145.31 7.43Q145.06 7.14 145.06 6.69Q145.06 5.85 145.83 5Q146.61 4.16 147.9 3.6Q149.22 3.04 150.71 3.04Q153 3.04 154.1 4.39Q155.19 5.74 155.19 7.97Q155.19 10.49 153.92 12.71Q152.66 14.92 150.64 16.25Q148.64 17.57 146.55 17.57Z" />
				<path id="Medics " fill="#ffffff" d="M44.41 37.05L45.52 34.56Q46.19 33.13 49.16 26.58Q52.14 20.03 55.5 12.44Q55.85 11.63 55.85 11Q55.85 10.55 55.61 10.34Q55.36 10.09 54.66 10.09Q53.26 10.09 52.28 11.07Q51.3 12.02 50.81 13.49Q50.32 14.96 50.32 16.46Q50.32 16.92 50.39 17.55Q49.48 17.55 48.99 16.64Q48.53 15.73 48.53 14.68Q48.53 13.21 49.59 11.84Q50.63 10.48 52.21 9.64Q53.82 8.8 55.36 8.8Q56.59 8.8 57.32 9.46Q58.09 10.13 58.48 11.84Q58.9 13.56 58.9 16.64Q58.9 19.47 58.48 25.14Q58.27 27.84 58.16 30.43Q59.35 25.84 62.57 19.96Q65.83 14.08 68.14 10.69Q68.7 9.85 69.01 9.57Q69.36 9.25 69.89 9.25Q70.38 9.25 71 9.5Q70.13 11.6 69.43 14.4Q68.24 19.02 67.22 25.04Q66.25 31.02 66.25 34.17Q66.25 35.02 66.31 35.44Q66.39 35.85 66.56 36.34L66.77 37.05Q65.58 37.05 64.95 36.66Q64.36 36.27 64.11 35.47Q63.9 34.66 63.9 33.13Q63.9 29.38 64.78 25.14Q65.65 20.91 67.4 14.26Q65.86 16.25 63.97 20Q62.08 23.71 60.44 27.59Q58.83 31.48 58.02 33.9Q57.64 34.03 57.5 34.03Q56.62 34.03 56.27 33.02Q55.95 31.97 55.95 29.77Q55.95 27.8 56.23 22.2Q56.52 16.67 56.52 14.89Q56.52 13.91 56.45 12.93Q53.92 18.77 52.11 23.29Q49.69 29.1 48.5 31.73Q47.31 34.35 46.33 35.72Q45.35 37.05 44.41 37.05ZM74.54 35.54Q72.47 35.54 71.36 34.42Q70.27 33.27 70.27 31.48Q70.27 29.41 71.64 27.04Q73 24.66 75.06 23.04Q77.16 21.4 79.16 21.4Q81.33 21.4 81.33 23.53Q81.33 25.25 80.03 26.75Q78.74 28.23 76.71 29.17Q74.68 30.12 72.65 30.32Q72.51 30.92 72.51 31.59Q72.51 32.84 73.14 33.69Q73.77 34.52 75.28 34.52Q77.41 34.52 79.58 32.74Q81.75 30.95 83.12 28.33L83.53 28.64Q82.14 31.76 79.65 33.65Q77.16 35.54 74.54 35.54ZM72.83 29.66Q74.3 29.13 75.91 28.19Q77.52 27.24 78.64 25.98Q79.79 24.69 79.79 23.29Q79.79 22.87 79.62 22.7Q79.47 22.48 79.06 22.48Q77.97 22.48 76.68 23.57Q75.42 24.66 74.33 26.34Q73.28 28.02 72.83 29.66ZM84.48 35.05Q83.47 35.05 82.66 34.31Q81.86 33.55 81.86 32.11Q81.86 30.18 83.33 27.63Q84.8 25.04 87 23.22Q89.21 21.4 91.27 21.4Q92.81 21.4 92.81 22.48Q92.81 22.63 92.74 22.98Q92.39 22.45 91.41 22.45Q89.66 22.45 88.02 24.13Q86.37 25.77 85.32 28.02Q84.31 30.25 84.31 31.69Q84.31 32.46 84.62 32.91Q84.97 33.37 85.56 33.37Q86.51 33.37 87.88 32.18Q89.24 30.95 90.64 28.75Q92.04 26.54 93.13 23.74Q95.86 16.67 97.68 12.75Q99.53 8.8 100.79 8.8Q101.07 8.8 101.28 9.04Q101.49 9.25 101.49 9.6Q101.49 10.13 100.93 11.42Q100.37 12.68 99.11 15.34Q96.52 20.73 94.98 24.69Q93.44 28.61 93.44 31.55Q93.44 32.7 93.55 33.13Q93.69 33.51 94.25 33.51Q94.98 33.51 95.96 32.88Q96.98 32.22 97.96 31.06Q98.94 29.87 99.64 28.33L100.06 28.64Q99.39 30.39 98.24 31.83Q97.08 33.27 95.75 34.1Q94.46 34.91 93.27 34.91Q92.08 34.91 91.52 34.14Q90.96 33.37 90.96 32.28Q90.96 31.09 91.62 28.54Q89.84 31.48 87.91 33.27Q86.02 35.05 84.48 35.05ZM105.69 18.88Q105.06 18.88 104.64 18.6Q104.26 18.28 104.26 17.72Q104.26 17.02 105.1 16.46Q105.94 15.9 106.81 15.9Q107.97 15.9 107.97 16.99Q107.97 17.65 107.23 18.28Q106.53 18.88 105.69 18.88ZM101.49 34.91Q100.2 34.91 99.5 34.1Q98.8 33.27 98.8 31.97Q98.8 30.61 99.57 28.19Q100.37 25.77 101.53 23.95Q102.72 22.13 103.84 22.13Q104.15 22.13 104.36 22.34Q104.61 22.55 104.61 22.91Q104.61 23.39 103.49 25.25Q102.33 27.17 101.63 28.71Q100.97 30.22 100.97 31.59Q100.97 32.81 101.35 33.27Q101.77 33.69 102.68 33.69Q105.41 33.69 108.07 28.33L108.39 28.68Q107.41 31.62 105.48 33.27Q103.59 34.91 101.49 34.91ZM111.15 35.96Q109.4 35.96 108.32 34.8Q107.23 33.65 107.23 31.48Q107.23 29.2 108.39 27.04Q109.54 24.86 111.33 23.53Q113.15 22.17 114.9 22.17Q116.23 22.17 116.79 22.94Q117.38 23.67 117.38 24.76Q117.38 25.81 116.89 26.58Q116.44 27.31 115.63 27.31Q115.04 27.31 114.62 26.79Q115.14 26.54 115.53 25.7Q115.91 24.83 115.91 24.02Q115.91 23.57 115.74 23.36Q115.56 23.15 115.14 23.15Q113.95 23.15 112.59 24.59Q111.26 25.98 110.31 28.02Q109.4 30.05 109.4 31.73Q109.4 32.98 110 33.83Q110.59 34.63 111.96 34.63Q114.09 34.63 116.16 32.88Q118.26 31.13 119.38 28.29L119.83 28.64Q119.03 30.75 117.63 32.42Q116.23 34.07 114.51 35.02Q112.83 35.96 111.15 35.96ZM122.39 35.78Q120.11 35.78 119.06 34.42Q118.01 33.05 118.01 31.2Q118.01 29.8 118.5 29.24Q118.99 28.64 119.55 28.4Q120.15 28.16 120.25 28.05Q122.49 25.6 123.72 22.98L123.72 22.55Q123.72 21.36 124.1 20.77Q124.52 20.17 125.08 20.17Q125.36 20.17 125.5 20.31Q125.64 20.42 125.64 20.63Q125.64 20.77 125.54 21.23Q125.43 21.64 125.43 22.17Q125.43 22.87 125.61 23.67Q125.82 24.45 126.24 25.7Q126.73 27.21 126.97 28.33Q127.25 29.45 127.25 30.61Q127.25 31.52 127.04 32.32Q128.3 32.11 129.39 31.2Q130.47 30.25 131.45 28.36L131.77 28.71Q131.14 30.54 129.84 31.59Q128.55 32.63 126.87 32.88Q126.34 34.31 125.15 35.05Q123.96 35.78 122.39 35.78ZM124.84 32.28Q124.98 31.38 124.98 30.64Q124.98 29.59 124.8 28.54Q124.63 27.49 124.28 26.13Q123.96 24.73 123.89 24.3Q122.11 27.24 120.5 28.86Q121.06 30.08 122.18 31.02Q123.33 31.97 124.84 32.28ZM122.46 34.56Q124.07 34.56 124.66 32.84Q123.26 32.56 122.11 31.76Q120.95 30.92 120.36 29.94Q119.59 29.98 119.59 31.16Q119.59 32.49 120.36 33.55Q121.16 34.56 122.46 34.56Z" />
			</g>
		</g>
	</g>
</svg>